<?xml version="1.0" encoding="UTF-8" standalone="no"?>
<!DOCTYPE svg PUBLIC "-//W3C//DTD SVG 1.1//EN"
 "http://www.w3.org/Graphics/SVG/1.1/DTD/svg11.dtd">
<!-- Generated by graphviz version 2.43.0 (0)
 -->
<!-- Title: G Pages: 1 -->
<svg width="1225pt" height="782pt"
 viewBox="0.00 0.00 1225.00 782.00" xmlns="http://www.w3.org/2000/svg" xmlns:xlink="http://www.w3.org/1999/xlink">
<g id="graph0" class="graph" transform="scale(1 1) rotate(0) translate(4 778)">
<title>G</title>
<polygon fill="white" stroke="transparent" points="-4,4 -4,-778 1221,-778 1221,4 -4,4"/>
<g id="clust1" class="cluster">
<title>cluster_root</title>
<g id="a_clust1"><a xlink:title="eventq_index=0&#10;full_system=false&#10;sim_quantum=0&#10;time_sync_enable=false&#10;time_sync_period=100000000000&#10;time_sync_spin_threshold=100000000">
<path fill="#bab6ae" stroke="#000000" d="M20,-8C20,-8 1197,-8 1197,-8 1203,-8 1209,-14 1209,-20 1209,-20 1209,-754 1209,-754 1209,-760 1203,-766 1197,-766 1197,-766 20,-766 20,-766 14,-766 8,-760 8,-754 8,-754 8,-20 8,-20 8,-14 14,-8 20,-8"/>
<text text-anchor="middle" x="608.5" y="-750.8" font-family="Arial" font-size="14.00" fill="#000000">root </text>
<text text-anchor="middle" x="608.5" y="-735.8" font-family="Arial" font-size="14.00" fill="#000000">: Root</text>
</a>
</g>
</g>
<g id="clust2" class="cluster">
<title>cluster_board</title>
<g id="a_clust2"><a xlink:title="auto_unlink_shared_backstore=false&#10;cache_line_size=64&#10;eventq_index=0&#10;exit_on_work_items=true&#10;init_param=0&#10;m5ops_base=0&#10;mem_mode=atomic&#10;mem_ranges=0:3221225472&#10;memories=board.memory.mem_ctrl.dram&#10;mmap_using_noreserve=false&#10;multi_thread=false&#10;&#10;um_work_ids=16&#10;&#13;eadfile=&#10;&#13;edirect_paths=&#10;shadow_rom_ranges=&#10;shared_backstore=&#10;symbolfile=&#10;thermal_components=&#10;thermal_model=Null&#10;work_begin_ckpt_count=0&#10;work_begin_cpu_id_exit=&#45;1&#10;work_begin_exit_count=0&#10;work_cpus_ckpt_count=0&#10;work_end_ckpt_count=0&#10;work_end_exit_count=0&#10;work_item_id=&#45;1&#10;workload=board.workload">
<path fill="#e4e7eb" stroke="#000000" d="M28,-16C28,-16 1189,-16 1189,-16 1195,-16 1201,-22 1201,-28 1201,-28 1201,-708 1201,-708 1201,-714 1195,-720 1189,-720 1189,-720 28,-720 28,-720 22,-720 16,-714 16,-708 16,-708 16,-28 16,-28 16,-22 22,-16 28,-16"/>
<text text-anchor="middle" x="608.5" y="-704.8" font-family="Arial" font-size="14.00" fill="#000000">board </text>
<text text-anchor="middle" x="608.5" y="-689.8" font-family="Arial" font-size="14.00" fill="#000000">: SimpleBoard</text>
</a>
</g>
</g>
<g id="clust6" class="cluster">
<title>cluster_board_processor</title>
<g id="a_clust6"><a xlink:title="eventq_index=0&#10;thermal_domain=Null">
<path fill="#bab6ae" stroke="#000000" d="M284,-314C284,-314 1181,-314 1181,-314 1187,-314 1193,-320 1193,-326 1193,-326 1193,-662 1193,-662 1193,-668 1187,-674 1181,-674 1181,-674 284,-674 284,-674 278,-674 272,-668 272,-662 272,-662 272,-326 272,-326 272,-320 278,-314 284,-314"/>
<text text-anchor="middle" x="732.5" y="-658.8" font-family="Arial" font-size="14.00" fill="#000000">processor </text>
<text text-anchor="middle" x="732.5" y="-643.8" font-family="Arial" font-size="14.00" fill="#000000">: SimpleProcessor</text>
</a>
</g>
</g>
<g id="clust7" class="cluster">
<title>cluster_board_processor_cores</title>
<g id="a_clust7"><a xlink:title="eventq_index=0&#10;thermal_domain=Null">
<path fill="#9f9c95" stroke="#000000" d="M292,-322C292,-322 1173,-322 1173,-322 1179,-322 1185,-328 1185,-334 1185,-334 1185,-616 1185,-616 1185,-622 1179,-628 1173,-628 1173,-628 292,-628 292,-628 286,-628 280,-622 280,-616 280,-616 280,-334 280,-334 280,-328 286,-322 292,-322"/>
<text text-anchor="middle" x="732.5" y="-612.8" font-family="Arial" font-size="14.00" fill="#000000">cores </text>
<text text-anchor="middle" x="732.5" y="-597.8" font-family="Arial" font-size="14.00" fill="#000000">: SimpleCore</text>
</a>
</g>
</g>
<g id="clust8" class="cluster">
<title>cluster_board_processor_cores_core</title>
<g id="a_clust8"><a xlink:title="branchPred=Null&#10;checker=Null&#10;clk_domain=board.clk_domain&#10;cpu_id=0&#10;decoder=board.processor.cores.core.decoder&#10;do_checkpoint_insts=true&#10;do_statistics_insts=true&#10;eventq_index=0&#10;function_trace=false&#10;function_trace_start=0&#10;interrupts=board.processor.cores.core.interrupts&#10;isa=board.processor.cores.core.isa&#10;max_insts_all_threads=0&#10;max_insts_any_thread=0&#10;mmu=board.processor.cores.core.mmu&#10;&#10;umThreads=1&#10;power_gating_on_idle=false&#10;power_model=&#10;power_state=board.processor.cores.core.power_state&#10;progress_interval=0&#10;pwr_gating_latency=300&#10;simpoint_start_insts=0 1000000&#10;simulate_data_stalls=false&#10;simulate_inst_stalls=false&#10;socket_id=0&#10;switched_out=false&#10;syscallRetryLatency=10000&#10;system=board&#10;tracer=board.processor.cores.core.tracer&#10;width=1&#10;workload=board.processor.cores.core.workload">
<path fill="#bbc6d9" stroke="#000000" d="M300,-330C300,-330 1165,-330 1165,-330 1171,-330 1177,-336 1177,-342 1177,-342 1177,-570 1177,-570 1177,-576 1171,-582 1165,-582 1165,-582 300,-582 300,-582 294,-582 288,-576 288,-570 288,-570 288,-342 288,-342 288,-336 294,-330 300,-330"/>
<text text-anchor="middle" x="732.5" y="-566.8" font-family="Arial" font-size="14.00" fill="#000000">core </text>
<text text-anchor="middle" x="732.5" y="-551.8" font-family="Arial" font-size="14.00" fill="#000000">: X86AtomicSimpleCPU</text>
</a>
</g>
</g>
<g id="clust9" class="cluster">
<title>cluster_board_processor_cores_core_mmu</title>
<g id="a_clust9"><a xlink:title="dtb=board.processor.cores.core.mmu.dtb&#10;eventq_index=0&#10;itb=board.processor.cores.core.mmu.itb">
<path fill="#bab6ae" stroke="#000000" d="M823,-338C823,-338 1157,-338 1157,-338 1163,-338 1169,-344 1169,-350 1169,-350 1169,-524 1169,-524 1169,-530 1163,-536 1157,-536 1157,-536 823,-536 823,-536 817,-536 811,-530 811,-524 811,-524 811,-350 811,-350 811,-344 817,-338 823,-338"/>
<text text-anchor="middle" x="990" y="-520.8" font-family="Arial" font-size="14.00" fill="#000000">mmu </text>
<text text-anchor="middle" x="990" y="-505.8" font-family="Arial" font-size="14.00" fill="#000000">: X86MMU</text>
</a>
</g>
</g>
<g id="clust10" class="cluster">
<title>cluster_board_processor_cores_core_mmu_itb</title>
<g id="a_clust10"><a xlink:title="entry_type=instruction&#10;eventq_index=0&#10;&#10;ext_level=Null&#10;size=64&#10;system=board&#10;walker=board.processor.cores.core.mmu.itb.walker">
<path fill="#9f9c95" stroke="#000000" d="M1006,-346C1006,-346 1149,-346 1149,-346 1155,-346 1161,-352 1161,-358 1161,-358 1161,-478 1161,-478 1161,-484 1155,-490 1149,-490 1149,-490 1006,-490 1006,-490 1000,-490 994,-484 994,-478 994,-478 994,-358 994,-358 994,-352 1000,-346 1006,-346"/>
<text text-anchor="middle" x="1077.5" y="-474.8" font-family="Arial" font-size="14.00" fill="#000000">itb </text>
<text text-anchor="middle" x="1077.5" y="-459.8" font-family="Arial" font-size="14.00" fill="#000000">: X86TLB</text>
</a>
</g>
</g>
<g id="clust11" class="cluster">
<title>cluster_board_processor_cores_core_mmu_itb_walker</title>
<g id="a_clust11"><a xlink:title="clk_domain=board.clk_domain&#10;eventq_index=0&#10;&#10;um_squash_per_cycle=4&#10;power_model=&#10;power_state=board.processor.cores.core.mmu.itb.walker.power_state&#10;system=board">
<path fill="#84827c" stroke="#000000" d="M1014,-354C1014,-354 1141,-354 1141,-354 1147,-354 1153,-360 1153,-366 1153,-366 1153,-432 1153,-432 1153,-438 1147,-444 1141,-444 1141,-444 1014,-444 1014,-444 1008,-444 1002,-438 1002,-432 1002,-432 1002,-366 1002,-366 1002,-360 1008,-354 1014,-354"/>
<text text-anchor="middle" x="1077.5" y="-428.8" font-family="Arial" font-size="14.00" fill="#000000">walker </text>
<text text-anchor="middle" x="1077.5" y="-413.8" font-family="Arial" font-size="14.00" fill="#000000">: X86PagetableWalker</text>
</a>
</g>
</g>
<g id="clust13" class="cluster">
<title>cluster_board_processor_cores_core_mmu_dtb</title>
<g id="a_clust13"><a xlink:title="entry_type=data&#10;eventq_index=0&#10;&#10;ext_level=Null&#10;size=64&#10;system=board&#10;walker=board.processor.cores.core.mmu.dtb.walker">
<path fill="#9f9c95" stroke="#000000" d="M831,-346C831,-346 974,-346 974,-346 980,-346 986,-352 986,-358 986,-358 986,-478 986,-478 986,-484 980,-490 974,-490 974,-490 831,-490 831,-490 825,-490 819,-484 819,-478 819,-478 819,-358 819,-358 819,-352 825,-346 831,-346"/>
<text text-anchor="middle" x="902.5" y="-474.8" font-family="Arial" font-size="14.00" fill="#000000">dtb </text>
<text text-anchor="middle" x="902.5" y="-459.8" font-family="Arial" font-size="14.00" fill="#000000">: X86TLB</text>
</a>
</g>
</g>
<g id="clust14" class="cluster">
<title>cluster_board_processor_cores_core_mmu_dtb_walker</title>
<g id="a_clust14"><a xlink:title="clk_domain=board.clk_domain&#10;eventq_index=0&#10;&#10;um_squash_per_cycle=4&#10;power_model=&#10;power_state=board.processor.cores.core.mmu.dtb.walker.power_state&#10;system=board">
<path fill="#84827c" stroke="#000000" d="M839,-354C839,-354 966,-354 966,-354 972,-354 978,-360 978,-366 978,-366 978,-432 978,-432 978,-438 972,-444 966,-444 966,-444 839,-444 839,-444 833,-444 827,-438 827,-432 827,-432 827,-366 827,-366 827,-360 833,-354 839,-354"/>
<text text-anchor="middle" x="902.5" y="-428.8" font-family="Arial" font-size="14.00" fill="#000000">walker </text>
<text text-anchor="middle" x="902.5" y="-413.8" font-family="Arial" font-size="14.00" fill="#000000">: X86PagetableWalker</text>
</a>
</g>
</g>
<g id="clust22" class="cluster">
<title>cluster_board_processor_cores_core_interrupts</title>
<g id="a_clust22"><a xlink:title="clk_domain=board.processor.cores.core.interrupts.clk_domain&#10;eventq_index=0&#10;int_latency=1000&#10;pio_latency=100000&#10;system=board">
<path fill="#bab6ae" stroke="#000000" d="M514,-354C514,-354 791,-354 791,-354 797,-354 803,-360 803,-366 803,-366 803,-432 803,-432 803,-438 797,-444 791,-444 791,-444 514,-444 514,-444 508,-444 502,-438 502,-432 502,-432 502,-366 502,-366 502,-360 508,-354 514,-354"/>
<text text-anchor="middle" x="652.5" y="-428.8" font-family="Arial" font-size="14.00" fill="#000000">interrupts </text>
<text text-anchor="middle" x="652.5" y="-413.8" font-family="Arial" font-size="14.00" fill="#000000">: X86LocalApic</text>
</a>
</g>
</g>
<g id="clust24" class="cluster">
<title>cluster_board_memory</title>
<g id="a_clust24"><a xlink:title="eventq_index=0&#10;thermal_domain=Null">
<path fill="#bab6ae" stroke="#000000" d="M136,-346C136,-346 252,-346 252,-346 258,-346 264,-352 264,-358 264,-358 264,-478 264,-478 264,-484 258,-490 252,-490 252,-490 136,-490 136,-490 130,-490 124,-484 124,-478 124,-478 124,-358 124,-358 124,-352 130,-346 136,-346"/>
<text text-anchor="middle" x="194" y="-474.8" font-family="Arial" font-size="14.00" fill="#000000">memory </text>
<text text-anchor="middle" x="194" y="-459.8" font-family="Arial" font-size="14.00" fill="#000000">: ChanneledMemory</text>
</a>
</g>
</g>
<g id="clust25" class="cluster">
<title>cluster_board_memory_mem_ctrl</title>
<g id="a_clust25"><a xlink:title="clk_domain=board.clk_domain&#10;command_window=10000&#10;disable_sanity_check=false&#10;dram=board.memory.mem_ctrl.dram&#10;eventq_index=0&#10;mem_sched_policy=frfcfs&#10;min_reads_per_switch=16&#10;min_writes_per_switch=16&#10;power_model=&#10;power_state=board.memory.mem_ctrl.power_state&#10;qos_policy=Null&#10;qos_priorities=1&#10;qos_priority_escalation=false&#10;qos_q_policy=fifo&#10;qos_requestors= &#160;&#160;&#160;&#160;&#160;&#160;&#160;&#160;&#160;&#160;&#160;&#160;&#160;&#160;&#10;qos_syncro_scheduler=false&#10;qos_turnaround_policy=Null&#10;static_backend_latency=10000&#10;static_frontend_latency=10000&#10;system=board&#10;write_high_thresh_perc=85&#10;write_low_thresh_perc=50">
<path fill="#9f9c95" stroke="#000000" d="M191,-354C191,-354 244,-354 244,-354 250,-354 256,-360 256,-366 256,-366 256,-432 256,-432 256,-438 250,-444 244,-444 244,-444 191,-444 191,-444 185,-444 179,-438 179,-432 179,-432 179,-366 179,-366 179,-360 185,-354 191,-354"/>
<text text-anchor="middle" x="217.5" y="-428.8" font-family="Arial" font-size="14.00" fill="#000000">mem_ctrl </text>
<text text-anchor="middle" x="217.5" y="-413.8" font-family="Arial" font-size="14.00" fill="#000000">: MemCtrl</text>
</a>
</g>
</g>
<g id="clust29" class="cluster">
<title>cluster_board_cache_hierarchy</title>
<g id="a_clust29"><a xlink:title="eventq_index=0&#10;thermal_domain=Null">
<path fill="#bab6ae" stroke="#000000" d="M398,-24C398,-24 726,-24 726,-24 732,-24 738,-30 738,-36 738,-36 738,-294 738,-294 738,-300 732,-306 726,-306 726,-306 398,-306 398,-306 392,-306 386,-300 386,-294 386,-294 386,-36 386,-36 386,-30 392,-24 398,-24"/>
<text text-anchor="middle" x="562" y="-290.8" font-family="Arial" font-size="14.00" fill="#000000">cache_hierarchy </text>
<text text-anchor="middle" x="562" y="-275.8" font-family="Arial" font-size="14.00" fill="#000000">: NoCache</text>
</a>
</g>
</g>
<g id="clust30" class="cluster">
<title>cluster_board_cache_hierarchy_membus</title>
<g id="a_clust30"><a xlink:title="clk_domain=board.clk_domain&#10;eventq_index=0&#10;forward_latency=4&#10;frontend_latency=3&#10;header_latency=1&#10;max_outstanding_snoops=512&#10;max_routing_table_size=2048&#10;point_of_coherency=true&#10;point_of_unification=true&#10;power_model=&#10;power_state=board.cache_hierarchy.membus.power_state&#10;&#13;esponse_latency=2&#10;snoop_filter=board.cache_hierarchy.membus.snoop_filter&#10;snoop_response_latency=4&#10;system=board&#10;use_default_range=false&#10;width=64">
<path fill="#6f798c" stroke="#000000" d="M406,-32C406,-32 718,-32 718,-32 724,-32 730,-38 730,-44 730,-44 730,-248 730,-248 730,-254 724,-260 718,-260 718,-260 406,-260 406,-260 400,-260 394,-254 394,-248 394,-248 394,-44 394,-44 394,-38 400,-32 406,-32"/>
<text text-anchor="middle" x="562" y="-244.8" font-family="Arial" font-size="14.00" fill="#000000">membus </text>
<text text-anchor="middle" x="562" y="-229.8" font-family="Arial" font-size="14.00" fill="#000000">: SystemXBar</text>
</a>
</g>
</g>
<g id="clust33" class="cluster">
<title>cluster_board_cache_hierarchy_membus_badaddr_responder</title>
<g id="a_clust33"><a xlink:title="clk_domain=board.clk_domain&#10;eventq_index=0&#10;fake_mem=false&#10;pio_addr=0&#10;pio_latency=100000&#10;pio_size=8&#10;power_model=&#10;power_state=board.cache_hierarchy.membus.badaddr_responder.power_state&#10;&#13;et_bad_addr=true&#10;&#13;et_data16=65535&#10;&#13;et_data32=4294967295&#10;&#13;et_data64=18446744073709551615&#10;&#13;et_data8=255&#10;system=board&#10;update_data=false&#10;warn_access=">
<path fill="#c7a793" stroke="#000000" d="M414,-40C414,-40 528,-40 528,-40 534,-40 540,-46 540,-52 540,-52 540,-118 540,-118 540,-124 534,-130 528,-130 528,-130 414,-130 414,-130 408,-130 402,-124 402,-118 402,-118 402,-52 402,-52 402,-46 408,-40 414,-40"/>
<text text-anchor="middle" x="471" y="-114.8" font-family="Arial" font-size="14.00" fill="#000000">badaddr_responder </text>
<text text-anchor="middle" x="471" y="-99.8" font-family="Arial" font-size="14.00" fill="#000000">: BadAddr</text>
</a>
</g>
</g>
<!-- board_system_port -->
<g id="node1" class="node">
<title>board_system_port</title>
<path fill="#b6b8bc" stroke="#000000" d="M103.5,-398C103.5,-398 36.5,-398 36.5,-398 30.5,-398 24.5,-392 24.5,-386 24.5,-386 24.5,-374 24.5,-374 24.5,-368 30.5,-362 36.5,-362 36.5,-362 103.5,-362 103.5,-362 109.5,-362 115.5,-368 115.5,-374 115.5,-374 115.5,-386 115.5,-386 115.5,-392 109.5,-398 103.5,-398"/>
<text text-anchor="middle" x="70" y="-376.3" font-family="Arial" font-size="14.00" fill="#000000">system_port</text>
</g>
<!-- board_cache_hierarchy_membus_cpu_side_ports -->
<g id="node10" class="node">
<title>board_cache_hierarchy_membus_cpu_side_ports</title>
<path fill="#586070" stroke="#000000" d="M710,-214C710,-214 626,-214 626,-214 620,-214 614,-208 614,-202 614,-202 614,-190 614,-190 614,-184 620,-178 626,-178 626,-178 710,-178 710,-178 716,-178 722,-184 722,-190 722,-190 722,-202 722,-202 722,-208 716,-214 710,-214"/>
<text text-anchor="middle" x="668" y="-192.3" font-family="Arial" font-size="14.00" fill="#000000">cpu_side_ports</text>
</g>
<!-- board_system_port&#45;&gt;board_cache_hierarchy_membus_cpu_side_ports -->
<g id="edge1" class="edge">
<title>board_system_port&#45;&gt;board_cache_hierarchy_membus_cpu_side_ports</title>
<path fill="none" stroke="black" d="M90.1,-361.92C110.13,-346.09 142.51,-323.57 175,-314 197.92,-307.25 584.42,-318.13 605,-306 635.09,-288.26 652.16,-250.2 660.74,-224.1"/>
<polygon fill="black" stroke="black" points="664.13,-225 663.72,-214.41 657.44,-222.94 664.13,-225"/>
</g>
<!-- board_processor_cores_core_icache_port -->
<g id="node2" class="node">
<title>board_processor_cores_core_icache_port</title>
<path fill="#959ead" stroke="#000000" d="M480,-398C480,-398 418,-398 418,-398 412,-398 406,-392 406,-386 406,-386 406,-374 406,-374 406,-368 412,-362 418,-362 418,-362 480,-362 480,-362 486,-362 492,-368 492,-374 492,-374 492,-386 492,-386 492,-392 486,-398 480,-398"/>
<text text-anchor="middle" x="449" y="-376.3" font-family="Arial" font-size="14.00" fill="#000000">icache_port</text>
</g>
<!-- board_processor_cores_core_icache_port&#45;&gt;board_cache_hierarchy_membus_cpu_side_ports -->
<g id="edge2" class="edge">
<title>board_processor_cores_core_icache_port&#45;&gt;board_cache_hierarchy_membus_cpu_side_ports</title>
<path fill="none" stroke="black" d="M456.73,-361.83C464.69,-346.39 478.65,-324.56 498,-314 518.93,-302.57 584.81,-318.68 605,-306 634.58,-287.43 651.78,-249.57 660.53,-223.75"/>
<polygon fill="black" stroke="black" points="663.88,-224.76 663.57,-214.17 657.21,-222.64 663.88,-224.76"/>
</g>
<!-- board_processor_cores_core_dcache_port -->
<g id="node3" class="node">
<title>board_processor_cores_core_dcache_port</title>
<path fill="#959ead" stroke="#000000" d="M375.5,-398C375.5,-398 308.5,-398 308.5,-398 302.5,-398 296.5,-392 296.5,-386 296.5,-386 296.5,-374 296.5,-374 296.5,-368 302.5,-362 308.5,-362 308.5,-362 375.5,-362 375.5,-362 381.5,-362 387.5,-368 387.5,-374 387.5,-374 387.5,-386 387.5,-386 387.5,-392 381.5,-398 375.5,-398"/>
<text text-anchor="middle" x="342" y="-376.3" font-family="Arial" font-size="14.00" fill="#000000">dcache_port</text>
</g>
<!-- board_processor_cores_core_dcache_port&#45;&gt;board_cache_hierarchy_membus_cpu_side_ports -->
<g id="edge3" class="edge">
<title>board_processor_cores_core_dcache_port&#45;&gt;board_cache_hierarchy_membus_cpu_side_ports</title>
<path fill="none" stroke="black" d="M350.95,-361.92C360.18,-346.31 376.14,-324.17 397,-314 417.79,-303.87 585.19,-317.94 605,-306 634.91,-287.97 652.03,-249.98 660.67,-223.97"/>
<polygon fill="black" stroke="black" points="664.04,-224.91 663.67,-214.32 657.36,-222.83 664.04,-224.91"/>
</g>
<!-- board_processor_cores_core_mmu_itb_walker_port -->
<g id="node4" class="node">
<title>board_processor_cores_core_mmu_itb_walker_port</title>
<path fill="#6a6863" stroke="#000000" d="M1052,-398C1052,-398 1022,-398 1022,-398 1016,-398 1010,-392 1010,-386 1010,-386 1010,-374 1010,-374 1010,-368 1016,-362 1022,-362 1022,-362 1052,-362 1052,-362 1058,-362 1064,-368 1064,-374 1064,-374 1064,-386 1064,-386 1064,-392 1058,-398 1052,-398"/>
<text text-anchor="middle" x="1037" y="-376.3" font-family="Arial" font-size="14.00" fill="#000000">port</text>
</g>
<!-- board_processor_cores_core_mmu_itb_walker_port&#45;&gt;board_cache_hierarchy_membus_cpu_side_ports -->
<g id="edge4" class="edge">
<title>board_processor_cores_core_mmu_itb_walker_port&#45;&gt;board_cache_hierarchy_membus_cpu_side_ports</title>
<path fill="none" stroke="black" d="M1026.25,-361.93C1016.33,-347.41 1000.38,-326.92 982,-314 904.7,-259.67 799.1,-227.19 732.22,-210.69"/>
<polygon fill="black" stroke="black" points="732.78,-207.23 722.23,-208.28 731.13,-214.03 732.78,-207.23"/>
</g>
<!-- board_processor_cores_core_mmu_dtb_walker_port -->
<g id="node5" class="node">
<title>board_processor_cores_core_mmu_dtb_walker_port</title>
<path fill="#6a6863" stroke="#000000" d="M877,-398C877,-398 847,-398 847,-398 841,-398 835,-392 835,-386 835,-386 835,-374 835,-374 835,-368 841,-362 847,-362 847,-362 877,-362 877,-362 883,-362 889,-368 889,-374 889,-374 889,-386 889,-386 889,-392 883,-398 877,-398"/>
<text text-anchor="middle" x="862" y="-376.3" font-family="Arial" font-size="14.00" fill="#000000">port</text>
</g>
<!-- board_processor_cores_core_mmu_dtb_walker_port&#45;&gt;board_cache_hierarchy_membus_cpu_side_ports -->
<g id="edge5" class="edge">
<title>board_processor_cores_core_mmu_dtb_walker_port&#45;&gt;board_cache_hierarchy_membus_cpu_side_ports</title>
<path fill="none" stroke="black" d="M848.73,-361.75C838.02,-348.24 822.28,-329.24 807,-314 772.04,-279.13 727.86,-243.15 698.81,-220.47"/>
<polygon fill="black" stroke="black" points="700.71,-217.52 690.67,-214.15 696.42,-223.05 700.71,-217.52"/>
</g>
<!-- board_processor_cores_core_interrupts_int_requestor -->
<g id="node6" class="node">
<title>board_processor_cores_core_interrupts_int_requestor</title>
<path fill="#94918b" stroke="#000000" d="M782.5,-398C782.5,-398 711.5,-398 711.5,-398 705.5,-398 699.5,-392 699.5,-386 699.5,-386 699.5,-374 699.5,-374 699.5,-368 705.5,-362 711.5,-362 711.5,-362 782.5,-362 782.5,-362 788.5,-362 794.5,-368 794.5,-374 794.5,-374 794.5,-386 794.5,-386 794.5,-392 788.5,-398 782.5,-398"/>
<text text-anchor="middle" x="747" y="-376.3" font-family="Arial" font-size="14.00" fill="#000000">int_requestor</text>
</g>
<!-- board_processor_cores_core_interrupts_int_requestor&#45;&gt;board_cache_hierarchy_membus_cpu_side_ports -->
<g id="edge6" class="edge">
<title>board_processor_cores_core_interrupts_int_requestor&#45;&gt;board_cache_hierarchy_membus_cpu_side_ports</title>
<path fill="none" stroke="black" d="M739.57,-361.88C725.75,-330.04 696,-261.51 679.54,-223.59"/>
<polygon fill="black" stroke="black" points="682.66,-221.99 675.47,-214.21 676.24,-224.78 682.66,-221.99"/>
</g>
<!-- board_processor_cores_core_interrupts_int_responder -->
<g id="node7" class="node">
<title>board_processor_cores_core_interrupts_int_responder</title>
<path fill="#94918b" stroke="#000000" d="M669.5,-398C669.5,-398 594.5,-398 594.5,-398 588.5,-398 582.5,-392 582.5,-386 582.5,-386 582.5,-374 582.5,-374 582.5,-368 588.5,-362 594.5,-362 594.5,-362 669.5,-362 669.5,-362 675.5,-362 681.5,-368 681.5,-374 681.5,-374 681.5,-386 681.5,-386 681.5,-392 675.5,-398 669.5,-398"/>
<text text-anchor="middle" x="632" y="-376.3" font-family="Arial" font-size="14.00" fill="#000000">int_responder</text>
</g>
<!-- board_cache_hierarchy_membus_mem_side_ports -->
<g id="node11" class="node">
<title>board_cache_hierarchy_membus_mem_side_ports</title>
<path fill="#586070" stroke="#000000" d="M584,-214C584,-214 490,-214 490,-214 484,-214 478,-208 478,-202 478,-202 478,-190 478,-190 478,-184 484,-178 490,-178 490,-178 584,-178 584,-178 590,-178 596,-184 596,-190 596,-190 596,-202 596,-202 596,-208 590,-214 584,-214"/>
<text text-anchor="middle" x="537" y="-192.3" font-family="Arial" font-size="14.00" fill="#000000">mem_side_ports</text>
</g>
<!-- board_processor_cores_core_interrupts_int_responder&#45;&gt;board_cache_hierarchy_membus_mem_side_ports -->
<g id="edge7" class="edge">
<title>board_processor_cores_core_interrupts_int_responder&#45;&gt;board_cache_hierarchy_membus_mem_side_ports</title>
<path fill="none" stroke="black" d="M618.42,-352.99C598.72,-315.23 562.71,-246.25 545.98,-214.21"/>
<polygon fill="black" stroke="black" points="615.33,-354.63 623.06,-361.88 621.54,-351.39 615.33,-354.63"/>
</g>
<!-- board_processor_cores_core_interrupts_pio -->
<g id="node8" class="node">
<title>board_processor_cores_core_interrupts_pio</title>
<path fill="#94918b" stroke="#000000" d="M552,-398C552,-398 522,-398 522,-398 516,-398 510,-392 510,-386 510,-386 510,-374 510,-374 510,-368 516,-362 522,-362 522,-362 552,-362 552,-362 558,-362 564,-368 564,-374 564,-374 564,-386 564,-386 564,-392 558,-398 552,-398"/>
<text text-anchor="middle" x="537" y="-376.3" font-family="Arial" font-size="14.00" fill="#000000">pio</text>
</g>
<!-- board_processor_cores_core_interrupts_pio&#45;&gt;board_cache_hierarchy_membus_mem_side_ports -->
<g id="edge8" class="edge">
<title>board_processor_cores_core_interrupts_pio&#45;&gt;board_cache_hierarchy_membus_mem_side_ports</title>
<path fill="none" stroke="black" d="M537,-351.54C537,-313.49 537,-245.85 537,-214.21"/>
<polygon fill="black" stroke="black" points="533.5,-351.88 537,-361.88 540.5,-351.88 533.5,-351.88"/>
</g>
<!-- board_memory_mem_ctrl_port -->
<g id="node9" class="node">
<title>board_memory_mem_ctrl_port</title>
<path fill="#7f7c77" stroke="#000000" d="M236,-398C236,-398 206,-398 206,-398 200,-398 194,-392 194,-386 194,-386 194,-374 194,-374 194,-368 200,-362 206,-362 206,-362 236,-362 236,-362 242,-362 248,-368 248,-374 248,-374 248,-386 248,-386 248,-392 242,-398 236,-398"/>
<text text-anchor="middle" x="221" y="-376.3" font-family="Arial" font-size="14.00" fill="#000000">port</text>
</g>
<!-- board_memory_mem_ctrl_port&#45;&gt;board_cache_hierarchy_membus_mem_side_ports -->
<g id="edge9" class="edge">
<title>board_memory_mem_ctrl_port&#45;&gt;board_cache_hierarchy_membus_mem_side_ports</title>
<path fill="none" stroke="black" d="M237.9,-353.76C249.1,-339.32 265.19,-322.45 284,-314 321.54,-297.14 433.46,-326.74 469,-306 503.87,-285.66 523.42,-239.59 531.89,-214.35"/>
<polygon fill="black" stroke="black" points="235.01,-351.77 231.88,-361.89 240.64,-355.93 235.01,-351.77"/>
</g>
<!-- board_cache_hierarchy_membus_default -->
<g id="node12" class="node">
<title>board_cache_hierarchy_membus_default</title>
<path fill="#586070" stroke="#000000" d="M447.5,-214C447.5,-214 414.5,-214 414.5,-214 408.5,-214 402.5,-208 402.5,-202 402.5,-202 402.5,-190 402.5,-190 402.5,-184 408.5,-178 414.5,-178 414.5,-178 447.5,-178 447.5,-178 453.5,-178 459.5,-184 459.5,-190 459.5,-190 459.5,-202 459.5,-202 459.5,-208 453.5,-214 447.5,-214"/>
<text text-anchor="middle" x="431" y="-192.3" font-family="Arial" font-size="14.00" fill="#000000">default</text>
</g>
<!-- board_cache_hierarchy_membus_badaddr_responder_pio -->
<g id="node13" class="node">
<title>board_cache_hierarchy_membus_badaddr_responder_pio</title>
<path fill="#9f8575" stroke="#000000" d="M452,-84C452,-84 422,-84 422,-84 416,-84 410,-78 410,-72 410,-72 410,-60 410,-60 410,-54 416,-48 422,-48 422,-48 452,-48 452,-48 458,-48 464,-54 464,-60 464,-60 464,-72 464,-72 464,-78 458,-84 452,-84"/>
<text text-anchor="middle" x="437" y="-62.3" font-family="Arial" font-size="14.00" fill="#000000">pio</text>
</g>
<!-- board_cache_hierarchy_membus_default&#45;&gt;board_cache_hierarchy_membus_badaddr_responder_pio -->
<g id="edge10" class="edge">
<title>board_cache_hierarchy_membus_default&#45;&gt;board_cache_hierarchy_membus_badaddr_responder_pio</title>
<path fill="none" stroke="black" d="M431.81,-177.74C432.81,-156.36 434.53,-119.69 435.71,-94.44"/>
<polygon fill="black" stroke="black" points="439.21,-94.55 436.18,-84.4 432.22,-94.22 439.21,-94.55"/>
</g>
</g>
</svg>
